<svg width="24" height="24" viewBox="0 0 24 24" fill="none" xmlns="http://www.w3.org/2000/svg">
<path d="M1.65039 19V4.78125H6.29883C7.8418 4.78125 9.00065 5.10026 9.77539 5.73828C10.5566 6.3763 10.9473 7.32031 10.9473 8.57031C10.9473 9.23438 10.7585 9.82357 10.3809 10.3379C10.0033 10.8457 9.48893 11.2396 8.83789 11.5195C9.60612 11.7344 10.2116 12.1445 10.6543 12.75C11.1035 13.349 11.3281 14.0651 11.3281 14.8984C11.3281 16.1745 10.9147 17.1771 10.0879 17.9062C9.26107 18.6354 8.09245 19 6.58203 19H1.65039ZM3.52539 12.3496V17.4668H6.62109C7.49349 17.4668 8.18034 17.2422 8.68164 16.793C9.18945 16.3372 9.44336 15.7122 9.44336 14.918C9.44336 13.2057 8.51237 12.3496 6.65039 12.3496H3.52539ZM3.52539 10.8457H6.35742C7.17773 10.8457 7.83203 10.6406 8.32031 10.2305C8.8151 9.82031 9.0625 9.26367 9.0625 8.56055C9.0625 7.7793 8.83464 7.21289 8.37891 6.86133C7.92318 6.50326 7.22982 6.32422 6.29883 6.32422H3.52539V10.8457ZM18.2129 19.1953C16.7806 19.1953 15.6152 18.7266 14.7168 17.7891C13.8184 16.8451 13.3691 15.5853 13.3691 14.0098V13.6777C13.3691 12.6296 13.5677 11.6953 13.9648 10.875C14.3685 10.0482 14.9284 9.40365 15.6445 8.94141C16.3672 8.47266 17.1484 8.23828 17.9883 8.23828C19.362 8.23828 20.4297 8.69076 21.1914 9.5957C21.9531 10.5007 22.334 11.7962 22.334 13.4824V14.2344H15.1758C15.2018 15.276 15.5046 16.1191 16.084 16.7637C16.6699 17.4017 17.4121 17.7207 18.3105 17.7207C18.9486 17.7207 19.4889 17.5905 19.9316 17.3301C20.3743 17.0697 20.7617 16.7246 21.0938 16.2949L22.1973 17.1543C21.3118 18.515 19.9837 19.1953 18.2129 19.1953ZM17.9883 9.72266C17.2591 9.72266 16.6471 9.98958 16.1523 10.5234C15.6576 11.0508 15.3516 11.793 15.2344 12.75H20.5273V12.6133C20.4753 11.6953 20.2279 10.9857 19.7852 10.4844C19.3424 9.97656 18.7435 9.72266 17.9883 9.72266Z" fill="#D9D9D9"/>
<path d="M1.65039 19H1.55039V19.1H1.65039V19ZM1.65039 4.78125V4.68125H1.55039V4.78125H1.65039ZM9.77539 5.73828L9.71182 5.81547L9.71214 5.81573L9.77539 5.73828ZM10.3809 10.3379L10.4611 10.3976L10.4615 10.3971L10.3809 10.3379ZM8.83789 11.5195L8.79839 11.4277L8.53818 11.5396L8.81096 11.6158L8.83789 11.5195ZM10.6543 12.75L10.5736 12.809L10.5743 12.81L10.6543 12.75ZM10.0879 17.9062L10.0217 17.8312L10.0879 17.9062ZM3.52539 12.3496V12.2496H3.42539V12.3496H3.52539ZM3.52539 17.4668H3.42539V17.5668H3.52539V17.4668ZM8.68164 16.793L8.74838 16.8674L8.74843 16.8674L8.68164 16.793ZM3.52539 10.8457H3.42539V10.9457H3.52539V10.8457ZM8.32031 10.2305L8.25649 10.1535L8.25599 10.1539L8.32031 10.2305ZM8.37891 6.86133L8.31712 6.93996L8.31783 6.94051L8.37891 6.86133ZM3.52539 6.32422V6.22422H3.42539V6.32422H3.52539ZM1.75039 19V4.78125H1.55039V19H1.75039ZM1.65039 4.88125H6.29883V4.68125H1.65039V4.88125ZM6.29883 4.88125C7.83047 4.88125 8.96239 5.1983 9.71182 5.81547L9.83896 5.66109C9.03891 5.00222 7.85312 4.68125 6.29883 4.68125V4.88125ZM9.71214 5.81573C10.4647 6.43029 10.8473 7.34247 10.8473 8.57031H11.0473C11.0473 7.29816 10.6486 6.32231 9.83864 5.66083L9.71214 5.81573ZM10.8473 8.57031C10.8473 9.21401 10.6647 9.78228 10.3003 10.2787L10.4615 10.3971C10.8522 9.86486 11.0473 9.25474 11.0473 8.57031H10.8473ZM10.3006 10.2782C9.93474 10.7703 9.43523 11.1538 8.79839 11.4277L8.87739 11.6114C9.54263 11.3253 10.0718 10.9211 10.4611 10.3976L10.3006 10.2782ZM8.81096 11.6158C9.55905 11.825 10.145 12.2229 10.5736 12.809L10.735 12.691C10.2782 12.0662 9.65319 11.6437 8.86482 11.4232L8.81096 11.6158ZM10.5743 12.81C11.0091 13.3897 11.2281 14.0842 11.2281 14.8984H11.4281C11.4281 14.046 11.198 13.3082 10.7343 12.69L10.5743 12.81ZM11.2281 14.8984C11.2281 16.1508 10.8236 17.1241 10.0217 17.8312L10.154 17.9813C11.0059 17.23 11.4281 16.1982 11.4281 14.8984H11.2281ZM10.0217 17.8312C9.219 18.5392 8.07714 18.9 6.58203 18.9V19.1C8.10775 19.1 9.30314 18.7316 10.154 17.9813L10.0217 17.8312ZM6.58203 18.9H1.65039V19.1H6.58203V18.9ZM3.42539 12.3496V17.4668H3.62539V12.3496H3.42539ZM3.52539 17.5668H6.62109V17.3668H3.52539V17.5668ZM6.62109 17.5668C7.51063 17.5668 8.22383 17.3375 8.74838 16.8674L8.6149 16.7185C8.13684 17.1469 7.47634 17.3668 6.62109 17.3668V17.5668ZM8.74843 16.8674C9.28091 16.3895 9.54336 15.7355 9.54336 14.918H9.34336C9.34336 15.689 9.09799 16.285 8.61485 16.7185L8.74843 16.8674ZM9.54336 14.918C9.54336 14.0442 9.30542 13.3711 8.81281 12.9181C8.32178 12.4666 7.59481 12.2496 6.65039 12.2496V12.4496C7.56795 12.4496 8.23747 12.6607 8.67743 13.0653C9.1158 13.4684 9.34336 14.0795 9.34336 14.918H9.54336ZM6.65039 12.2496H3.52539V12.4496H6.65039V12.2496ZM3.52539 10.9457H6.35742V10.7457H3.52539V10.9457ZM6.35742 10.9457C7.19439 10.9457 7.87369 10.7362 8.38463 10.307L8.25599 10.1539C7.79037 10.545 7.16108 10.7457 6.35742 10.7457V10.9457ZM8.38413 10.3075C8.90418 9.87636 9.1625 9.29026 9.1625 8.56055H8.9625C8.9625 9.23708 8.72603 9.76426 8.25649 10.1535L8.38413 10.3075ZM9.1625 8.56055C9.1625 7.76017 8.92834 7.15888 8.43999 6.78215L8.31783 6.94051C8.74093 7.2669 8.9625 7.79842 8.9625 8.56055H9.1625ZM8.44069 6.7827C7.95948 6.4046 7.23959 6.22422 6.29883 6.22422V6.42422C7.22004 6.42422 7.88688 6.60191 8.31712 6.93996L8.44069 6.7827ZM6.29883 6.22422H3.52539V6.42422H6.29883V6.22422ZM3.42539 6.32422V10.8457H3.62539V6.32422H3.42539ZM14.7168 17.7891L14.6444 17.858L14.6446 17.8583L14.7168 17.7891ZM13.9648 10.875L13.875 10.8311L13.8748 10.8314L13.9648 10.875ZM15.6445 8.94141L15.6988 9.02542L15.699 9.0253L15.6445 8.94141ZM21.1914 9.5957L21.1149 9.6601L21.1914 9.5957ZM22.334 14.2344V14.3344H22.434V14.2344H22.334ZM15.1758 14.2344V14.1344H15.0733L15.0758 14.2369L15.1758 14.2344ZM16.084 16.7637L16.0096 16.8305L16.0103 16.8313L16.084 16.7637ZM21.0938 16.2949L21.1552 16.216L21.076 16.1543L21.0146 16.2338L21.0938 16.2949ZM22.1973 17.1543L22.2811 17.2088L22.3312 17.1318L22.2587 17.0754L22.1973 17.1543ZM16.1523 10.5234L16.2253 10.5919L16.2257 10.5914L16.1523 10.5234ZM15.2344 12.75L15.1351 12.7378L15.1214 12.85H15.2344V12.75ZM20.5273 12.75V12.85H20.6273V12.75H20.5273ZM20.5273 12.6133H20.6275L20.6272 12.6076L20.5273 12.6133ZM19.7852 10.4844L19.7098 10.5501L19.7102 10.5506L19.7852 10.4844ZM18.2129 19.0953C16.8048 19.0953 15.6665 18.6356 14.789 17.7199L14.6446 17.8583C15.5639 18.8176 16.7564 19.2953 18.2129 19.2953V19.0953ZM14.7892 17.7201C13.9121 16.7984 13.4691 15.5653 13.4691 14.0098H13.2691C13.2691 15.6053 13.7247 16.8917 14.6444 17.858L14.7892 17.7201ZM13.4691 14.0098V13.6777H13.2691V14.0098H13.4691ZM13.4691 13.6777C13.4691 12.6424 13.6652 11.7234 14.0549 10.9186L13.8748 10.8314C13.4702 11.6672 13.2691 12.6167 13.2691 13.6777H13.4691ZM14.0547 10.9189C14.451 10.1071 14.9991 9.477 15.6988 9.02542L15.5903 8.85739C14.8576 9.3303 14.286 9.98928 13.875 10.8311L14.0547 10.9189ZM15.699 9.0253C16.4058 8.56678 17.1683 8.33828 17.9883 8.33828V8.13828C17.1286 8.13828 16.3285 8.37853 15.5901 8.85751L15.699 9.0253ZM17.9883 8.33828C19.3378 8.33828 20.3753 8.78149 21.1149 9.6601L21.2679 9.53131C20.484 8.60002 19.3862 8.13828 17.9883 8.13828V8.33828ZM21.1149 9.6601C21.8561 10.5407 22.234 11.8099 22.234 13.4824H22.434C22.434 11.7825 22.0501 10.4606 21.2679 9.53131L21.1149 9.6601ZM22.234 13.4824V14.2344H22.434V13.4824H22.234ZM22.334 14.1344H15.1758V14.3344H22.334V14.1344ZM15.0758 14.2369C15.1023 15.2973 15.4112 16.1649 16.0096 16.8305L16.1584 16.6968C15.5979 16.0734 15.3013 15.2548 15.2758 14.2319L15.0758 14.2369ZM16.0103 16.8313C16.616 17.4908 17.3853 17.8207 18.3105 17.8207V17.6207C17.4389 17.6207 16.7239 17.3126 16.1576 16.696L16.0103 16.8313ZM18.3105 17.8207C18.9621 17.8207 19.521 17.6877 19.9823 17.4163L19.8809 17.2439C19.4569 17.4933 18.935 17.6207 18.3105 17.6207V17.8207ZM19.9823 17.4163C20.4367 17.149 20.8335 16.7953 21.1729 16.3561L21.0146 16.2338C20.6899 16.654 20.312 16.9903 19.8809 17.2439L19.9823 17.4163ZM21.0323 16.3738L22.1358 17.2332L22.2587 17.0754L21.1552 16.216L21.0323 16.3738ZM22.1134 17.0998C21.2484 18.4291 19.9535 19.0953 18.2129 19.0953V19.2953C20.0139 19.2953 21.3753 18.6008 22.2811 17.2088L22.1134 17.0998ZM17.9883 9.62266C17.2313 9.62266 16.5928 9.90115 16.079 10.4555L16.2257 10.5914C16.7015 10.078 17.2869 9.82266 17.9883 9.82266V9.62266ZM16.0794 10.455C15.5659 11.0023 15.254 11.7667 15.1351 12.7378L15.3336 12.7622C15.4491 11.8192 15.7492 11.0993 16.2253 10.5919L16.0794 10.455ZM15.2344 12.85H20.5273V12.65H15.2344V12.85ZM20.6273 12.75V12.6133H20.4273V12.75H20.6273ZM20.6272 12.6076C20.5743 11.6755 20.3224 10.9416 19.8601 10.4182L19.7102 10.5506C20.1334 11.0297 20.3762 11.7151 20.4275 12.6189L20.6272 12.6076ZM19.8605 10.4187C19.3964 9.88628 18.7685 9.62266 17.9883 9.62266V9.82266C18.7185 9.82266 19.2885 10.0668 19.7098 10.5501L19.8605 10.4187Z" fill="#D9D9D9"/>
<rect x="13.5" y="5.5" width="9" height="1.5" fill="#D9D9D9"/>
</svg>
