<svg width="2036" height="677" viewBox="0 0 2036 677" fill="none" xmlns="http://www.w3.org/2000/svg">
<path fill-rule="evenodd" clip-rule="evenodd" d="M510.29 2H634.304V112.213H510.29V2ZM510.173 0H510.29H634.304H634.421H636.304H636.421H762.318H762.435H764.318H764.435H888.449H888.567H890.449H890.567H1016.46H1018.46V2V112.213V112.557V114.213V114.557V224.77V225.115V226.77V227.115V337.328V337.672V339.328V339.672V449.885V450.23V451.885V452.23V562.443V562.788V564.443V564.788V675V677H1016.46H890.567H890.449H888.567H888.449H764.435H764.318H762.435H762.318H636.421H636.304H634.421H634.304H510.29H510.173H508.29H508.173H382.276H382.159H380.276H380.159H256.145H256.028H254.145H254.028H128.131H126.131L126.014 677H2H0V675V564.787V564.442V562.787V562.442V452.23V451.885V450.23V449.885V339.672V339.328V337.672V337.328V227.115V226.771V225.115V224.771V114.558V114.213V112.558V112.213V2.0004V0.000400734H2H126.014H126.131V0H128.131H254.028H254.145H256.028H256.145H380.159H380.276H382.159H382.276H508.173H508.29H510.173ZM126.014 2.0004H2V112.213H126.014V2.0004ZM510.29 114.557H634.304V224.77H510.29V114.557ZM126.014 114.558H2V224.771H126.014V114.558ZM126.014 339.672H2V449.885H126.014V339.672ZM2 564.787H126.014V675H2V564.787ZM510.29 564.788H634.304V675H510.29V564.788ZM380.159 564.788H256.145V675H380.159V564.788ZM764.435 564.788H888.449V675H764.435V564.788ZM254.028 564.788H128.131V675H254.028V564.788ZM636.421 564.788H762.318V675H636.421V564.788ZM508.173 564.788H382.276V675H508.173V564.788ZM890.567 564.788H1016.46V675H890.567V564.788ZM510.29 339.672H634.304V449.885H510.29V339.672ZM380.159 339.672H256.145V449.885H380.159V339.672ZM764.435 339.672H888.449V449.885H764.435V339.672ZM254.028 339.672H128.131V449.885H254.028V339.672ZM636.421 339.672H762.318V449.885H636.421V339.672ZM508.173 339.672H382.276V449.885H508.173V339.672ZM890.567 339.672H1016.46V449.885H890.567V339.672ZM380.159 114.557H256.145V224.77H380.159V114.557ZM764.435 114.557H888.449V224.77H764.435V114.557ZM254.028 114.557H128.131V224.77H254.028V114.557ZM636.421 114.557H762.318V224.77H636.421V114.557ZM508.173 114.557H382.276V224.77H508.173V114.557ZM890.567 114.557H1016.46V224.77H890.567V114.557ZM126.014 452.23H2V562.442H126.014V452.23ZM510.29 452.23H634.304V562.443H510.29V452.23ZM380.159 452.23H256.145V562.443H380.159V452.23ZM764.435 452.23H888.449V562.443H764.435V452.23ZM254.028 452.23H128.131V562.443H254.028V452.23ZM636.421 452.23H762.318V562.443H636.421V452.23ZM508.173 452.23H382.276V562.443H508.173V452.23ZM890.567 452.23H1016.46V562.443H890.567V452.23ZM126.014 227.115H2V337.328H126.014V227.115ZM510.29 227.115H634.304V337.328H510.29V227.115ZM380.159 227.115H256.145V337.328H380.159V227.115ZM764.435 227.115H888.449V337.328H764.435V227.115ZM254.028 227.115H128.131V337.328H254.028V227.115ZM636.421 227.115H762.318V337.328H636.421V227.115ZM508.173 227.115H382.276V337.328H508.173V227.115ZM890.567 227.115H1016.46V337.328H890.567V227.115ZM380.159 2H256.145V112.213H380.159V2ZM764.435 2H888.449V112.213H764.435V2ZM254.028 2H128.131V112.213H254.028V2ZM636.421 2H762.318V112.213H636.421V2ZM508.173 2H382.276V112.213H508.173V2ZM890.567 2H1016.46V112.213H890.567V2Z" fill="url(#paint0_linear)"/>
<path fill-rule="evenodd" clip-rule="evenodd" d="M1527.29 2H1651.3V112.213H1527.29V2ZM1527.17 0H1527.29H1651.3H1651.42H1653.3H1653.42H1779.32H1779.44H1781.32H1781.44H1905.45H1905.57H1907.45H1907.57H2033.46H2035.46V2V112.213V112.557V114.213V114.557V224.77V225.115V226.77V227.115V337.328V337.672V339.328V339.672V449.885V450.23V451.885V452.23V562.443V562.788V564.443V564.788V675V677H2033.46H1907.57H1907.45H1905.57H1905.45H1781.44H1781.32H1779.44H1779.32H1653.42H1653.3H1651.42H1651.3H1527.29H1527.17H1525.29H1525.17H1399.28H1399.16H1397.28H1397.16H1273.15H1273.03H1271.15H1271.03H1145.13H1143.13L1143.01 677H1019H1017V675V564.787V564.442V562.787V562.442V452.23V451.885V450.23V449.885V339.672V339.328V337.672V337.328V227.115V226.771V225.115V224.771V114.558V114.213V112.558V112.213V2.0004V0.000400734H1019H1143.01H1143.13V0H1145.13H1271.03H1271.15H1273.03H1273.15H1397.16H1397.28H1399.16H1399.28H1525.17H1525.29H1527.17ZM1143.01 2.0004H1019V112.213H1143.01V2.0004ZM1527.29 114.557H1651.3V224.77H1527.29V114.557ZM1143.01 114.558H1019V224.771H1143.01V114.558ZM1143.01 339.672H1019V449.885H1143.01V339.672ZM1019 564.787H1143.01V675H1019V564.787ZM1527.29 564.788H1651.3V675H1527.29V564.788ZM1397.16 564.788H1273.15V675H1397.16V564.788ZM1781.44 564.788H1905.45V675H1781.44V564.788ZM1271.03 564.788H1145.13V675H1271.03V564.788ZM1653.42 564.788H1779.32V675H1653.42V564.788ZM1525.17 564.788H1399.28V675H1525.17V564.788ZM1907.57 564.788H2033.46V675H1907.57V564.788ZM1527.29 339.672H1651.3V449.885H1527.29V339.672ZM1397.16 339.672H1273.15V449.885H1397.16V339.672ZM1781.44 339.672H1905.45V449.885H1781.44V339.672ZM1271.03 339.672H1145.13V449.885H1271.03V339.672ZM1653.42 339.672H1779.32V449.885H1653.42V339.672ZM1525.17 339.672H1399.28V449.885H1525.17V339.672ZM1907.57 339.672H2033.46V449.885H1907.57V339.672ZM1397.16 114.557H1273.15V224.77H1397.16V114.557ZM1781.44 114.557H1905.45V224.77H1781.44V114.557ZM1271.03 114.557H1145.13V224.77H1271.03V114.557ZM1653.42 114.557H1779.32V224.77H1653.42V114.557ZM1525.17 114.557H1399.28V224.77H1525.17V114.557ZM1907.57 114.557H2033.46V224.77H1907.57V114.557ZM1143.01 452.23H1019V562.442H1143.01V452.23ZM1527.29 452.23H1651.3V562.443H1527.29V452.23ZM1397.16 452.23H1273.15V562.443H1397.16V452.23ZM1781.44 452.23H1905.45V562.443H1781.44V452.23ZM1271.03 452.23H1145.13V562.443H1271.03V452.23ZM1653.42 452.23H1779.32V562.443H1653.42V452.23ZM1525.17 452.23H1399.28V562.443H1525.17V452.23ZM1907.57 452.23H2033.46V562.443H1907.57V452.23ZM1143.01 227.115H1019V337.328H1143.01V227.115ZM1527.29 227.115H1651.3V337.328H1527.29V227.115ZM1397.16 227.115H1273.15V337.328H1397.16V227.115ZM1781.44 227.115H1905.45V337.328H1781.44V227.115ZM1271.03 227.115H1145.13V337.328H1271.03V227.115ZM1653.42 227.115H1779.32V337.328H1653.42V227.115ZM1525.17 227.115H1399.28V337.328H1525.17V227.115ZM1907.57 227.115H2033.46V337.328H1907.57V227.115ZM1397.16 2H1273.15V112.213H1397.16V2ZM1781.44 2H1905.45V112.213H1781.44V2ZM1271.03 2H1145.13V112.213H1271.03V2ZM1653.42 2H1779.32V112.213H1653.42V2ZM1525.17 2H1399.28V112.213H1525.17V2ZM1907.57 2H2033.46V112.213H1907.57V2Z" fill="url(#paint1_linear)"/>
<defs>
<linearGradient id="paint0_linear" x1="509.232" y1="0" x2="509.232" y2="677" gradientUnits="userSpaceOnUse">
<stop stop-color="#313131" stop-opacity="0"/>
<stop offset="1" stop-color="#2D2D2D"/>
</linearGradient>
<linearGradient id="paint1_linear" x1="1526.23" y1="0" x2="1526.23" y2="677" gradientUnits="userSpaceOnUse">
<stop stop-color="#313131" stop-opacity="0"/>
<stop offset="1" stop-color="#2D2D2D"/>
</linearGradient>
</defs>
</svg>
