<svg width="148" height="35" viewBox="0 0 148 35" fill="none" xmlns="http://www.w3.org/2000/svg">
<mask id="mask0" mask-type="alpha" maskUnits="userSpaceOnUse" x="0" y="0" width="35" height="35">
<circle cx="17.5" cy="17.5" r="17.5" fill="#C4C4C4"/>
</mask>
<g mask="url(#mask0)">
<rect x="-0.369751" y="-0.492981" width="35.7394" height="35.7394" fill="url(#paint0_linear)"/>
<g filter="url(#filter0_d)">
<path fill-rule="evenodd" clip-rule="evenodd" d="M17.2327 21.5204C19.5338 20.2989 21.0739 18.0692 21.0739 15.521C21.0739 11.8837 17.936 8.8953 13.9261 8.56177V17.5379L13.926 17.5378V26.1468H21.074L17.2327 21.5204Z" fill="white"/>
</g>
</g>
<path d="M47.3574 18.9805H45.502V24H42.0742V9.78125H47.6699C49.3561 9.78125 50.6745 10.1556 51.625 10.9043C52.5755 11.653 53.0508 12.7109 53.0508 14.0781C53.0508 15.0677 52.849 15.888 52.4453 16.5391C52.0482 17.1901 51.4232 17.7174 50.5703 18.1211L53.5391 23.8535V24H49.8672L47.3574 18.9805ZM45.502 16.334H47.6699C48.321 16.334 48.8092 16.1647 49.1348 15.8262C49.4668 15.4811 49.6328 15.0026 49.6328 14.3906C49.6328 13.7786 49.4668 13.3001 49.1348 12.9551C48.8027 12.6035 48.3145 12.4277 47.6699 12.4277H45.502V16.334ZM60.9219 24C60.8047 23.7852 60.7005 23.4694 60.6094 23.0527C60.0039 23.8145 59.1576 24.1953 58.0703 24.1953C57.0742 24.1953 56.2279 23.8958 55.5312 23.2969C54.8346 22.6914 54.4863 21.9329 54.4863 21.0215C54.4863 19.8757 54.9095 19.0098 55.7559 18.4238C56.6022 17.8379 57.8327 17.5449 59.4473 17.5449H60.4629V16.9883C60.4629 16.0182 60.043 15.5332 59.2031 15.5332C58.4219 15.5332 58.0312 15.9173 58.0312 16.6855H54.7402C54.7402 15.6634 55.1732 14.8333 56.0391 14.1953C56.9115 13.5573 58.0215 13.2383 59.3691 13.2383C60.7168 13.2383 61.7812 13.5671 62.5625 14.2246C63.3438 14.8822 63.7441 15.7839 63.7637 16.9297V21.6074C63.7767 22.5775 63.9264 23.3197 64.2129 23.834V24H60.9219ZM58.8613 21.8516C59.2715 21.8516 59.61 21.7637 59.877 21.5879C60.1504 21.4121 60.3457 21.2135 60.4629 20.9922V19.3027H59.5059C58.36 19.3027 57.7871 19.8171 57.7871 20.8457C57.7871 21.1452 57.888 21.3893 58.0898 21.5781C58.2917 21.7604 58.5488 21.8516 58.8613 21.8516ZM66.3613 24V15.7188H64.8281V13.4336H66.3613V13.082C66.3809 11.6758 66.8431 10.5983 67.748 9.84961C68.6074 9.14648 69.8086 8.79492 71.3516 8.79492C72.3216 8.79492 73.4674 8.98372 74.7891 9.36133L74.3398 11.959L73.793 11.8125C73.0833 11.6237 72.3346 11.5293 71.5469 11.5293C70.2904 11.5293 69.6621 12.1022 69.6621 13.248V13.4336H71.7324V15.7188H69.6621V24H66.3613ZM76.3027 24H72.9922V13.4336H76.3027V24ZM83.7441 18.9805H81.8887V24H78.4609V9.78125H84.0566C85.7428 9.78125 87.0612 10.1556 88.0117 10.9043C88.9622 11.653 89.4375 12.7109 89.4375 14.0781C89.4375 15.0677 89.2357 15.888 88.832 16.5391C88.4349 17.1901 87.8099 17.7174 86.957 18.1211L89.9258 23.8535V24H86.2539L83.7441 18.9805ZM81.8887 16.334H84.0566C84.7077 16.334 85.196 16.1647 85.5215 15.8262C85.8535 15.4811 86.0195 15.0026 86.0195 14.3906C86.0195 13.7786 85.8535 13.3001 85.5215 12.9551C85.1895 12.6035 84.7012 12.4277 84.0566 12.4277H81.8887V16.334ZM90.9414 18.6191C90.9414 17.5645 91.1465 16.627 91.5566 15.8066C91.9668 14.9798 92.556 14.3451 93.3242 13.9023C94.0924 13.4596 94.9941 13.2383 96.0293 13.2383C97.6113 13.2383 98.8581 13.7298 99.7695 14.7129C100.681 15.6895 101.137 17.0208 101.137 18.707V18.8242C101.137 20.4714 100.678 21.7799 99.7598 22.75C98.8483 23.7135 97.6113 24.1953 96.0488 24.1953C94.5449 24.1953 93.3372 23.7461 92.4258 22.8477C91.5143 21.9427 91.0228 20.7188 90.9512 19.1758L90.9414 18.6191ZM94.2324 18.8242C94.2324 19.8008 94.3854 20.5169 94.6914 20.9727C94.9974 21.4284 95.4499 21.6562 96.0488 21.6562C97.2207 21.6562 97.8197 20.7546 97.8457 18.9512V18.6191C97.8457 16.7246 97.2402 15.7773 96.0293 15.7773C94.929 15.7773 94.3333 16.5944 94.2422 18.2285L94.2324 18.8242ZM105.805 14.5664C106.508 13.681 107.406 13.2383 108.5 13.2383C109.665 13.2383 110.544 13.5833 111.137 14.2734C111.729 14.9635 112.032 15.9824 112.045 17.3301V24H108.744V17.4082C108.744 16.8483 108.63 16.4382 108.402 16.1777C108.174 15.9108 107.787 15.7773 107.24 15.7773C106.563 15.7773 106.085 15.9922 105.805 16.4219V24H102.514V9H105.805V14.5664ZM116.986 13.4336L117.094 14.6738C117.842 13.7168 118.848 13.2383 120.111 13.2383C121.446 13.2383 122.348 13.7689 122.816 14.8301C123.533 13.7689 124.568 13.2383 125.922 13.2383C128.064 13.2383 129.164 14.5339 129.223 17.125V24H125.922V17.3301C125.922 16.7897 125.831 16.3958 125.648 16.1484C125.466 15.901 125.134 15.7773 124.652 15.7773C124.001 15.7773 123.516 16.0671 123.197 16.6465L123.207 16.7832V24H119.906V17.3496C119.906 16.7962 119.818 16.3958 119.643 16.1484C119.467 15.901 119.132 15.7773 118.637 15.7773C118.005 15.7773 117.523 16.0671 117.191 16.6465V24H113.9V13.4336H116.986ZM137.055 24C136.938 23.7852 136.833 23.4694 136.742 23.0527C136.137 23.8145 135.29 24.1953 134.203 24.1953C133.207 24.1953 132.361 23.8958 131.664 23.2969C130.967 22.6914 130.619 21.9329 130.619 21.0215C130.619 19.8757 131.042 19.0098 131.889 18.4238C132.735 17.8379 133.965 17.5449 135.58 17.5449H136.596V16.9883C136.596 16.0182 136.176 15.5332 135.336 15.5332C134.555 15.5332 134.164 15.9173 134.164 16.6855H130.873C130.873 15.6634 131.306 14.8333 132.172 14.1953C133.044 13.5573 134.154 13.2383 135.502 13.2383C136.85 13.2383 137.914 13.5671 138.695 14.2246C139.477 14.8822 139.877 15.7839 139.896 16.9297V21.6074C139.91 22.5775 140.059 23.3197 140.346 23.834V24H137.055ZM134.994 21.8516C135.404 21.8516 135.743 21.7637 136.01 21.5879C136.283 21.4121 136.479 21.2135 136.596 20.9922V19.3027H135.639C134.493 19.3027 133.92 19.8171 133.92 20.8457C133.92 21.1452 134.021 21.3893 134.223 21.5781C134.424 21.7604 134.682 21.8516 134.994 21.8516ZM145.561 10.8066V13.4336H147.299V15.7188H145.561V20.5527C145.561 20.9499 145.632 21.2266 145.775 21.3828C145.919 21.5391 146.202 21.6172 146.625 21.6172C146.951 21.6172 147.224 21.5977 147.445 21.5586V23.9121C146.853 24.1009 146.234 24.1953 145.59 24.1953C144.457 24.1953 143.62 23.9284 143.08 23.3945C142.54 22.8607 142.27 22.0501 142.27 20.9629V15.7188H140.922V13.4336H142.27V10.8066H145.561Z" fill="white"/>
<defs>
<filter id="filter0_d" x="12.926" y="7.56177" width="27.1479" height="37.5851" filterUnits="userSpaceOnUse" color-interpolation-filters="sRGB">
<feFlood flood-opacity="0" result="BackgroundImageFix"/>
<feColorMatrix in="SourceAlpha" type="matrix" values="0 0 0 0 0 0 0 0 0 0 0 0 0 0 0 0 0 0 127 0"/>
<feOffset dx="9" dy="9"/>
<feGaussianBlur stdDeviation="5"/>
<feColorMatrix type="matrix" values="0 0 0 0 0 0 0 0 0 0 0 0 0 0 0 0 0 0 0.2 0"/>
<feBlend mode="normal" in2="BackgroundImageFix" result="effect1_dropShadow"/>
<feBlend mode="normal" in="SourceGraphic" in2="effect1_dropShadow" result="shape"/>
</filter>
<linearGradient id="paint0_linear" x1="35.3697" y1="-0.49298" x2="-0.369748" y2="37.012" gradientUnits="userSpaceOnUse">
<stop stop-color="#FB4B77"/>
<stop offset="0.494792" stop-color="#BF44FF"/>
<stop offset="1" stop-color="#1BADE8"/>
</linearGradient>
</defs>
</svg>
